<svg width="52" height="52" viewBox="0 0 52 52" fill="none" xmlns="http://www.w3.org/2000/svg">
<path d="M43.3327 37.9166C44.1673 37.917 44.9698 38.2385 45.5739 38.8145C46.1779 39.3904 46.5372 40.1767 46.5773 41.0104C46.6174 41.8441 46.3353 42.6612 45.7893 43.2925C45.2433 43.9238 44.4754 44.3209 43.6447 44.4014L43.3327 44.4166H8.66602C7.83138 44.4162 7.02889 44.0947 6.42484 43.5187C5.8208 42.9427 5.46149 42.1564 5.42138 41.3228C5.38127 40.4891 5.66343 39.6719 6.2094 39.0406C6.75536 38.4093 7.52327 38.0123 8.35402 37.9317L8.66602 37.9166H43.3327ZM43.3327 22.7499C44.1946 22.7499 45.0213 23.0923 45.6308 23.7018C46.2403 24.3113 46.5827 25.138 46.5827 25.9999C46.5827 26.8619 46.2403 27.6885 45.6308 28.298C45.0213 28.9075 44.1946 29.2499 43.3327 29.2499H8.66602C7.80406 29.2499 6.97741 28.9075 6.36792 28.298C5.75843 27.6885 5.41602 26.8619 5.41602 25.9999C5.41602 25.138 5.75843 24.3113 6.36792 23.7018C6.97741 23.0923 7.80406 22.7499 8.66602 22.7499H43.3327ZM43.3327 7.58325C44.1946 7.58325 45.0213 7.92566 45.6308 8.53515C46.2403 9.14465 46.5827 9.9713 46.5827 10.8333C46.5827 11.6952 46.2403 12.5219 45.6308 13.1313C45.0213 13.7408 44.1946 14.0833 43.3327 14.0833H8.66602C7.80406 14.0833 6.97741 13.7408 6.36792 13.1313C5.75843 12.5219 5.41602 11.6952 5.41602 10.8333C5.41602 9.9713 5.75843 9.14465 6.36792 8.53515C6.97741 7.92566 7.80406 7.58325 8.66602 7.58325H43.3327Z" fill="#B5E6FF"/>
</svg>
